<svg width="180" height="24" viewBox="0 0 180 24" fill="none" xmlns="http://www.w3.org/2000/svg">
<path d="M20 12V22H4V12" stroke="black" stroke-width="2" stroke-linecap="round" stroke-linejoin="round"/>
<path d="M22 7H2V12H22V7Z" stroke="black" stroke-width="2" stroke-linecap="round" stroke-linejoin="round"/>
<path d="M12 22V7" stroke="black" stroke-width="2" stroke-linecap="round" stroke-linejoin="round"/>
<path d="M12 7H16.5C17.163 7 17.7989 6.73661 18.2678 6.26777C18.7366 5.79893 19 5.16304 19 4.5C19 3.83696 18.7366 3.20107 18.2678 2.73223C17.7989 2.26339 17.163 2 16.5 2C13 2 12 7 12 7Z" stroke="black" stroke-width="2" stroke-linecap="round" stroke-linejoin="round"/>
<path d="M12 7H7.5C6.83696 7 6.20107 6.73661 5.73223 6.26777C5.26339 5.79893 5 5.16304 5 4.5C5 3.83696 5.26339 3.20107 5.73223 2.73223C6.20107 2.26339 6.83696 2 7.5 2C11 2 12 7 12 7Z" stroke="black" stroke-width="2" stroke-linecap="round" stroke-linejoin="round"/>
<path d="M37.233 19V8.81818H43.3381V9.91193H38.4659V13.3523H42.8807V14.446H38.4659V19H37.233ZM45.2086 19V11.3636H46.3422V12.517H46.4217C46.5609 12.1392 46.8128 11.8326 47.1774 11.5973C47.542 11.362 47.9529 11.2443 48.4103 11.2443C48.4965 11.2443 48.6042 11.246 48.7335 11.2493C48.8627 11.2526 48.9605 11.2576 49.0268 11.2642V12.4574C48.987 12.4474 48.8959 12.4325 48.7534 12.4126C48.6142 12.3894 48.4667 12.3778 48.3109 12.3778C47.9397 12.3778 47.6083 12.4557 47.3166 12.6115C47.0282 12.764 46.7995 12.9761 46.6305 13.2479C46.4648 13.5163 46.3819 13.8229 46.3819 14.1676V19H45.2086ZM53.3869 19.1591C52.6511 19.1591 52.0164 18.9967 51.4828 18.6719C50.9525 18.3438 50.5431 17.8864 50.2548 17.2997C49.9698 16.7098 49.8272 16.0237 49.8272 15.2415C49.8272 14.4593 49.9698 13.7699 50.2548 13.1733C50.5431 12.5734 50.9442 12.1061 51.4579 11.7713C51.975 11.4332 52.5782 11.2642 53.2676 11.2642C53.6653 11.2642 54.0581 11.3305 54.4458 11.4631C54.8336 11.5956 55.1866 11.8111 55.5048 12.1094C55.823 12.4044 56.0765 12.7955 56.2654 13.2827C56.4544 13.7699 56.5488 14.3698 56.5488 15.0824V15.5795H50.6625V14.5653H55.3556C55.3556 14.1345 55.2695 13.75 55.0971 13.4119C54.9281 13.0739 54.6861 12.8071 54.3713 12.6115C54.0597 12.416 53.6918 12.3182 53.2676 12.3182C52.8002 12.3182 52.3959 12.4342 52.0545 12.6662C51.7164 12.8949 51.4563 13.1932 51.274 13.5611C51.0917 13.929 51.0005 14.3234 51.0005 14.7443V15.4205C51.0005 15.9972 51.1 16.486 51.2988 16.8871C51.501 17.2848 51.7811 17.5881 52.139 17.7969C52.497 18.0024 52.9129 18.1051 53.3869 18.1051C53.6951 18.1051 53.9735 18.062 54.2221 17.9759C54.474 17.8864 54.6911 17.7538 54.8734 17.5781C55.0557 17.3991 55.1966 17.1771 55.296 16.9119L56.4295 17.2301C56.3102 17.6146 56.1097 17.9527 55.8279 18.2443C55.5462 18.5327 55.1982 18.758 54.7839 18.9205C54.3696 19.0795 53.9039 19.1591 53.3869 19.1591ZM61.5353 19.1591C60.7995 19.1591 60.1648 18.9967 59.6312 18.6719C59.1009 18.3438 58.6916 17.8864 58.4032 17.2997C58.1182 16.7098 57.9757 16.0237 57.9757 15.2415C57.9757 14.4593 58.1182 13.7699 58.4032 13.1733C58.6916 12.5734 59.0926 12.1061 59.6064 11.7713C60.1234 11.4332 60.7266 11.2642 61.416 11.2642C61.8137 11.2642 62.2065 11.3305 62.5943 11.4631C62.9821 11.5956 63.3351 11.8111 63.6532 12.1094C63.9714 12.4044 64.225 12.7955 64.4139 13.2827C64.6028 13.7699 64.6973 14.3698 64.6973 15.0824V15.5795H58.8109V14.5653H63.5041C63.5041 14.1345 63.4179 13.75 63.2456 13.4119C63.0765 13.0739 62.8346 12.8071 62.5197 12.6115C62.2082 12.416 61.8403 12.3182 61.416 12.3182C60.9487 12.3182 60.5443 12.4342 60.2029 12.6662C59.8649 12.8949 59.6047 13.1932 59.4224 13.5611C59.2401 13.929 59.149 14.3234 59.149 14.7443V15.4205C59.149 15.9972 59.2484 16.486 59.4473 16.8871C59.6494 17.2848 59.9295 17.5881 60.2875 17.7969C60.6454 18.0024 61.0614 18.1051 61.5353 18.1051C61.8436 18.1051 62.122 18.062 62.3706 17.9759C62.6225 17.8864 62.8395 17.7538 63.0218 17.5781C63.2041 17.3991 63.345 17.1771 63.4444 16.9119L64.5779 17.2301C64.4586 17.6146 64.2581 17.9527 63.9764 18.2443C63.6947 18.5327 63.3467 18.758 62.9324 18.9205C62.5181 19.0795 62.0524 19.1591 61.5353 19.1591ZM77.5389 12C77.4295 11.6652 77.2853 11.3653 77.1064 11.1001C76.9307 10.8317 76.7202 10.603 76.475 10.4141C76.233 10.2251 75.9579 10.081 75.6497 9.98153C75.3414 9.8821 75.0034 9.83239 74.6355 9.83239C74.0323 9.83239 73.4837 9.98816 72.9899 10.2997C72.496 10.6113 72.1033 11.0703 71.8116 11.6768C71.5199 12.2834 71.3741 13.0275 71.3741 13.9091C71.3741 14.7907 71.5216 15.5348 71.8166 16.1413C72.1116 16.7479 72.5109 17.2069 73.0147 17.5185C73.5185 17.83 74.0853 17.9858 74.715 17.9858C75.2984 17.9858 75.8121 17.8615 76.2562 17.6129C76.7037 17.361 77.0517 17.0064 77.3002 16.549C77.5521 16.0883 77.6781 15.5464 77.6781 14.9233L78.0559 15.0028H74.9934V13.9091H78.8713V15.0028C78.8713 15.8414 78.6923 16.5705 78.3343 17.1903C77.9797 17.8101 77.4892 18.2907 76.8627 18.6321C76.2396 18.9702 75.5237 19.1392 74.715 19.1392C73.8135 19.1392 73.0214 18.9271 72.3386 18.5028C71.6592 18.0786 71.1288 17.4754 70.7477 16.6932C70.3699 15.911 70.1809 14.983 70.1809 13.9091C70.1809 13.1037 70.2886 12.3795 70.5041 11.7365C70.7228 11.0902 71.0311 10.54 71.4288 10.0859C71.8265 9.63187 72.2972 9.28385 72.8407 9.0419C73.3843 8.79995 73.9825 8.67898 74.6355 8.67898C75.1724 8.67898 75.6729 8.76018 76.1369 8.92258C76.6042 9.08168 77.0202 9.30871 77.3848 9.60369C77.7527 9.89536 78.0592 10.245 78.3045 10.6527C78.5498 11.0571 78.7188 11.5062 78.8116 12H77.5389ZM81.3024 19V11.3636H82.4757V19H81.3024ZM81.899 10.0909C81.6703 10.0909 81.4731 10.013 81.3074 9.85724C81.1449 9.70147 81.0637 9.5142 81.0637 9.29545C81.0637 9.0767 81.1449 8.88944 81.3074 8.73366C81.4731 8.57789 81.6703 8.5 81.899 8.5C82.1277 8.5 82.3232 8.57789 82.4856 8.73366C82.6513 8.88944 82.7342 9.0767 82.7342 9.29545C82.7342 9.5142 82.6513 9.70147 82.4856 9.85724C82.3232 10.013 82.1277 10.0909 81.899 10.0909ZM88.0252 11.3636V12.358H83.9087V11.3636H88.0252ZM85.1417 19V10.3097C85.1417 9.87216 85.2444 9.50758 85.4499 9.21591C85.6554 8.92424 85.9222 8.70549 86.2504 8.55966C86.5785 8.41383 86.9248 8.34091 87.2894 8.34091C87.5778 8.34091 87.8131 8.36411 87.9954 8.41051C88.1777 8.45691 88.3136 8.5 88.4031 8.53977L88.065 9.55398C88.0053 9.53409 87.9225 9.50923 87.8164 9.4794C87.7137 9.44957 87.5778 9.43466 87.4087 9.43466C87.021 9.43466 86.7409 9.53243 86.5685 9.72798C86.3995 9.92353 86.315 10.2102 86.315 10.5881V19H85.1417ZM92.9906 11.3636V12.358H89.0332V11.3636H92.9906ZM90.1866 9.53409H91.3599V16.8125C91.3599 17.1439 91.408 17.3925 91.5041 17.5582C91.6035 17.7206 91.7295 17.83 91.8819 17.8864C92.0377 17.9394 92.2018 17.9659 92.3741 17.9659C92.5034 17.9659 92.6094 17.9593 92.6923 17.946C92.7752 17.9295 92.8414 17.9162 92.8912 17.9062L93.1298 18.9602C93.0502 18.9901 92.9392 19.0199 92.7967 19.0497C92.6542 19.0829 92.4735 19.0994 92.2548 19.0994C91.9234 19.0994 91.5985 19.0282 91.2804 18.8857C90.9655 18.7431 90.7037 18.526 90.4949 18.2344C90.2894 17.9427 90.1866 17.5748 90.1866 17.1307V9.53409ZM99.2697 19H97.9771L101.716 8.81818H102.988L106.727 19H105.434L102.392 10.429H102.312L99.2697 19ZM99.747 15.0227H104.957V16.1165H99.747V15.0227ZM108.927 19L106.6 11.3636H107.833L109.484 17.2102H109.563L111.194 11.3636H112.447L114.058 17.1903H114.137L115.788 11.3636H117.021L114.694 19H113.541L111.87 13.1335H111.751L110.08 19H108.927ZM120.819 19.179C120.335 19.179 119.896 19.0878 119.502 18.9055C119.107 18.7199 118.794 18.4531 118.562 18.1051C118.33 17.7538 118.214 17.3295 118.214 16.8324C118.214 16.3949 118.3 16.0402 118.472 15.7685C118.645 15.4934 118.875 15.2779 119.164 15.1222C119.452 14.9664 119.77 14.8504 120.118 14.7741C120.469 14.6946 120.822 14.6316 121.177 14.5852C121.641 14.5256 122.017 14.4808 122.306 14.451C122.597 14.4179 122.809 14.3632 122.942 14.2869C123.078 14.2107 123.146 14.0781 123.146 13.8892V13.8494C123.146 13.3589 123.012 12.9777 122.743 12.706C122.478 12.4342 122.075 12.2983 121.535 12.2983C120.975 12.2983 120.536 12.4209 120.218 12.6662C119.899 12.9115 119.676 13.1733 119.546 13.4517L118.433 13.054C118.632 12.59 118.897 12.2287 119.228 11.9702C119.563 11.7083 119.927 11.526 120.322 11.4233C120.72 11.3172 121.111 11.2642 121.495 11.2642C121.74 11.2642 122.022 11.294 122.34 11.3537C122.662 11.41 122.972 11.5277 123.27 11.7067C123.572 11.8857 123.822 12.1558 124.021 12.517C124.22 12.8783 124.319 13.3622 124.319 13.9688V19H123.146V17.9659H123.086C123.007 18.1316 122.874 18.3089 122.688 18.4979C122.503 18.6868 122.256 18.8475 121.948 18.9801C121.639 19.1127 121.263 19.179 120.819 19.179ZM120.998 18.125C121.462 18.125 121.853 18.0339 122.171 17.8516C122.493 17.6693 122.735 17.4339 122.897 17.1456C123.063 16.8572 123.146 16.554 123.146 16.2358V15.1619C123.096 15.2216 122.987 15.2763 122.818 15.326C122.652 15.3724 122.46 15.4138 122.241 15.4503C122.026 15.4834 121.815 15.5133 121.61 15.5398C121.407 15.563 121.243 15.5829 121.117 15.5994C120.812 15.6392 120.527 15.7038 120.262 15.7933C120 15.8795 119.788 16.0104 119.626 16.1861C119.467 16.3584 119.387 16.5937 119.387 16.892C119.387 17.2997 119.538 17.608 119.84 17.8168C120.145 18.0223 120.531 18.125 120.998 18.125ZM126.461 19V11.3636H127.634V19H126.461ZM127.057 10.0909C126.828 10.0909 126.631 10.013 126.466 9.85724C126.303 9.70147 126.222 9.5142 126.222 9.29545C126.222 9.0767 126.303 8.88944 126.466 8.73366C126.631 8.57789 126.828 8.5 127.057 8.5C127.286 8.5 127.481 8.57789 127.644 8.73366C127.81 8.88944 127.892 9.0767 127.892 9.29545C127.892 9.5142 127.81 9.70147 127.644 9.85724C127.481 10.013 127.286 10.0909 127.057 10.0909ZM133.104 11.3636V12.358H129.146V11.3636H133.104ZM130.3 9.53409H131.473V16.8125C131.473 17.1439 131.521 17.3925 131.617 17.5582C131.717 17.7206 131.843 17.83 131.995 17.8864C132.151 17.9394 132.315 17.9659 132.487 17.9659C132.617 17.9659 132.723 17.9593 132.806 17.946C132.888 17.9295 132.955 17.9162 133.004 17.9062L133.243 18.9602C133.164 18.9901 133.052 19.0199 132.91 19.0497C132.767 19.0829 132.587 19.0994 132.368 19.0994C132.037 19.0994 131.712 19.0282 131.394 18.8857C131.079 18.7431 130.817 18.526 130.608 18.2344C130.403 17.9427 130.3 17.5748 130.3 17.1307V9.53409ZM140.141 13.0739L139.087 13.3722C139.021 13.1965 138.923 13.0258 138.794 12.8601C138.668 12.6911 138.496 12.5518 138.277 12.4425C138.058 12.3331 137.778 12.2784 137.437 12.2784C136.969 12.2784 136.58 12.3861 136.268 12.6016C135.96 12.8137 135.806 13.0838 135.806 13.4119C135.806 13.7036 135.912 13.9339 136.124 14.103C136.336 14.272 136.668 14.4129 137.118 14.5256L138.252 14.804C138.935 14.9697 139.443 15.2232 139.778 15.5646C140.113 15.9027 140.28 16.3385 140.28 16.8722C140.28 17.3097 140.154 17.7008 139.903 18.0455C139.654 18.3902 139.306 18.6619 138.858 18.8608C138.411 19.0597 137.891 19.1591 137.297 19.1591C136.519 19.1591 135.874 18.9901 135.363 18.652C134.853 18.3139 134.53 17.8201 134.394 17.1705L135.508 16.892C135.614 17.303 135.814 17.6113 136.109 17.8168C136.407 18.0223 136.797 18.125 137.278 18.125C137.824 18.125 138.259 18.009 138.58 17.777C138.905 17.5417 139.067 17.2599 139.067 16.9318C139.067 16.6667 138.974 16.4446 138.789 16.2656C138.603 16.0833 138.318 15.9474 137.934 15.858L136.661 15.5597C135.962 15.3939 135.448 15.1371 135.12 14.7891C134.795 14.4377 134.633 13.9986 134.633 13.4716C134.633 13.0407 134.754 12.6596 134.996 12.3281C135.241 11.9967 135.574 11.7365 135.995 11.5476C136.419 11.3587 136.9 11.2642 137.437 11.2642C138.192 11.2642 138.786 11.4299 139.216 11.7614C139.651 12.0928 139.959 12.5303 140.141 13.0739ZM145.268 8.81818H146.68L149.504 13.571H149.623L152.447 8.81818H153.859L150.18 14.804V19H148.947V14.804L145.268 8.81818ZM157.317 19.1591C156.627 19.1591 156.022 18.995 155.502 18.6669C154.985 18.3388 154.581 17.8797 154.289 17.2898C154.001 16.6998 153.857 16.0104 153.857 15.2216C153.857 14.4261 154.001 13.7318 154.289 13.1385C154.581 12.5452 154.985 12.0845 155.502 11.7564C156.022 11.4283 156.627 11.2642 157.317 11.2642C158.006 11.2642 158.609 11.4283 159.126 11.7564C159.647 12.0845 160.051 12.5452 160.339 13.1385C160.631 13.7318 160.777 14.4261 160.777 15.2216C160.777 16.0104 160.631 16.6998 160.339 17.2898C160.051 17.8797 159.647 18.3388 159.126 18.6669C158.609 18.995 158.006 19.1591 157.317 19.1591ZM157.317 18.1051C157.84 18.1051 158.271 17.9709 158.609 17.7024C158.947 17.4339 159.198 17.081 159.36 16.6435C159.522 16.206 159.604 15.732 159.604 15.2216C159.604 14.7112 159.522 14.2356 159.36 13.7947C159.198 13.3539 158.947 12.9976 158.609 12.7259C158.271 12.4541 157.84 12.3182 157.317 12.3182C156.793 12.3182 156.362 12.4541 156.024 12.7259C155.686 12.9976 155.436 13.3539 155.273 13.7947C155.111 14.2356 155.03 14.7112 155.03 15.2216C155.03 15.732 155.111 16.206 155.273 16.6435C155.436 17.081 155.686 17.4339 156.024 17.7024C156.362 17.9709 156.793 18.1051 157.317 18.1051ZM167.381 15.8778V11.3636H168.554V19H167.381V17.7074H167.301C167.122 18.0952 166.844 18.425 166.466 18.6967C166.088 18.9652 165.611 19.0994 165.034 19.0994C164.557 19.0994 164.132 18.995 163.761 18.7862C163.39 18.5741 163.098 18.2559 162.886 17.8317C162.674 17.4041 162.568 16.8655 162.568 16.2159V11.3636H163.741V16.1364C163.741 16.6932 163.897 17.1373 164.209 17.4688C164.523 17.8002 164.925 17.9659 165.412 17.9659C165.703 17.9659 166 17.8913 166.302 17.7422C166.607 17.593 166.862 17.3643 167.067 17.0561C167.276 16.7479 167.381 16.3551 167.381 15.8778ZM172.254 8.81818L172.154 16.1364H171.001L170.902 8.81818H172.254ZM171.578 19.0795C171.333 19.0795 171.122 18.9917 170.946 18.8161C170.771 18.6404 170.683 18.4299 170.683 18.1847C170.683 17.9394 170.771 17.7289 170.946 17.5533C171.122 17.3776 171.333 17.2898 171.578 17.2898C171.823 17.2898 172.033 17.3776 172.209 17.5533C172.385 17.7289 172.473 17.9394 172.473 18.1847C172.473 18.3471 172.431 18.4962 172.348 18.6321C172.269 18.768 172.161 18.8774 172.025 18.9602C171.893 19.0398 171.743 19.0795 171.578 19.0795Z" fill="#1C1D22"/>
</svg>
